<?xml version="1.0" encoding="UTF-8" standalone="no"?><!DOCTYPE svg PUBLIC "-//W3C//DTD SVG 1.1//EN" "http://www.w3.org/Graphics/SVG/1.1/DTD/svg11.dtd"><svg width="100%" height="100%" viewBox="0 0 1200 1200" version="1.1" xmlns="http://www.w3.org/2000/svg" xmlns:xlink="http://www.w3.org/1999/xlink" xml:space="preserve" xmlns:serif="http://www.serif.com/" style="fill-rule:evenodd;clip-rule:evenodd;stroke-linejoin:round;stroke-miterlimit:1.41421;"><rect id="Page-3" serif:id="Page 3" x="0" y="0" width="200" height="200" style="fill:none;"/><g id="Layer-1" serif:id="Layer 1"><path d="M834.379,1036.32l-130.529,0l0.042,-122.271l-41.288,0l-0.037,122.271l-30.425,0l0.008,-153.266c0.012,-22.271 14.204,-41.934 35.321,-48.926c32.871,-10.887 67.071,-16.404 101.65,-16.404l42.191,0c34.567,0 67.771,-12.216 93.525,-34.4l23.834,-17.983c25.096,-18.921 43.271,-44.775 52.55,-74.767l24.146,-78.004c1.112,-3.575 3.65,-6.233 7.145,-7.492c3.488,-1.258 7.221,-0.825 10.288,1.2c4.221,2.755 6.179,7.88 4.862,12.75l-33.754,124.963c-6.871,25.458 -22.808,47.429 -44.879,61.862l-65.492,42.875c-30.762,21.125 -49.137,56.025 -49.15,93.367l-0.008,94.225Zm-637.692,-110.458c0,-24.471 15.6,-46.075 38.821,-53.763c71.346,-23.666 149.888,-23.666 221.15,0.029c23.204,7.684 38.792,29.288 38.792,53.759l-0.021,110.433l-34.483,0l0.046,-76.087l-43.38,0l-0.045,76.087l-143.071,0l0.046,-76.112l-43.384,0l-0.046,76.112l-34.45,0l0.025,-110.458Zm678.975,110.458l0.009,-94.221c0.012,-23.733 11.604,-45.862 30.862,-59.096l65.109,-42.62c30.545,-19.971 52.608,-50.384 62.129,-85.63l33.754,-124.983c5.983,-22.158 -2.917,-45.492 -22.162,-58.083c-14.05,-9.134 -31.113,-11.117 -46.838,-5.442c-15.762,5.679 -27.637,18.117 -32.587,34.125l-24.15,78.017c-6.705,21.662 -19.834,40.329 -37.975,53.991l-24.692,18.65l-0.421,0.342c-18.725,16.167 -42.662,25.071 -67.387,25.071l-42.192,0c-39.046,0 -77.613,6.225 -114.629,18.5c-38.046,12.6 -63.613,48.004 -63.625,88.108l-0.009,153.271l-52.05,0l0.021,-110.433c0,-43.204 -27.537,-81.359 -68.525,-94.942c-80.071,-26.575 -168.304,-26.583 -248.437,-0.025c-41.009,13.579 -68.563,51.733 -68.563,94.942l-0.021,110.458l-56.162,0l0,41.284l1011.43,-0.001l0,-41.283l-232.887,0Z" style="fill:#EC2E24;fill-rule:nonzero;"/><path d="M711.446,677.218l0,-16.013c0,-31.829 25.904,-57.729 57.742,-57.729c31.833,0 57.733,25.912 57.733,57.754l0,16.008c-0.012,31.838 -25.912,57.73 -57.741,57.734c-31.842,-0.021 -57.746,-25.925 -57.734,-57.755m-41.283,-16.012l0,16.008c-0.013,54.588 44.396,99.017 99.004,99.046l0.008,0c54.592,0 99.017,-44.421 99.03,-99.017l0,-16.012c0,-54.608 -44.417,-99.038 -99.017,-99.038c-54.6,0 -99.025,44.417 -99.025,99.013" style="fill:#EC2E24;fill-rule:nonzero;"/><path d="M282.727,702.498l0,-17.375c0,-34.933 28.433,-63.354 63.383,-63.354c34.934,0 63.355,28.421 63.355,63.354l0,17.375c0,16.942 -6.6,32.863 -18.584,44.825c-11.954,11.95 -27.846,18.529 -44.8,18.529c-34.933,0 -63.354,-28.42 -63.354,-63.354m63.354,106.738l0.054,0c58.809,0 106.68,-47.879 106.713,-106.738l0,-17.375c0,-58.854 -47.883,-106.737 -106.738,-106.737c-58.87,0 -106.766,47.883 -106.766,106.737l0,17.375c0,58.855 47.883,106.738 106.737,106.738" style="fill:#EC2E24;fill-rule:nonzero;"/><path d="M304.614,468.109l0,-268.008c0,-7.467 6.067,-13.542 13.521,-13.542l346.65,0c7.458,0 13.529,6.075 13.529,13.542l0,268.008c0,7.467 -6.071,13.538 -13.529,13.538l-36.729,0c-10.438,0 -18.929,8.491 -18.929,18.929l0,43.662l-60.638,-57.408c-3.525,-3.342 -8.15,-5.183 -13.012,-5.183l-217.334,0c-7.458,0 -13.529,-6.071 -13.529,-13.538m13.529,51.392l209.792,0l87.1,82.471c3.525,3.341 8.146,5.187 13.021,5.187c2.562,0 5.079,-0.521 7.492,-1.55c6.945,-3 11.437,-9.817 11.437,-17.379l0,-68.729l17.8,0c28.333,0 51.383,-23.054 51.383,-51.392l0,-268.008c0,-28.342 -23.05,-51.396 -51.383,-51.396l-346.65,0c-28.329,0 -51.375,23.054 -51.375,51.396l0,268.008c0,28.338 23.05,51.392 51.383,51.392" style="fill:#EC2E24;fill-rule:nonzero;"/><rect x="521.038" y="314.496" width="37.858" height="37.854" style="fill:#EC2E24;"/><rect x="569.779" y="314.496" width="37.858" height="37.854" style="fill:#EC2E24;"/><rect x="472.304" y="314.496" width="37.858" height="37.854" style="fill:#EC2E24;"/><rect x="374.838" y="314.496" width="37.854" height="37.854" style="fill:#EC2E24;"/><rect x="423.567" y="314.496" width="37.854" height="37.854" style="fill:#EC2E24;"/></g></svg>