<?xml version="1.0" encoding="UTF-8" standalone="no"?><!DOCTYPE svg PUBLIC "-//W3C//DTD SVG 1.1//EN" "http://www.w3.org/Graphics/SVG/1.1/DTD/svg11.dtd"><svg width="100%" height="100%" viewBox="0 0 1200 1200" version="1.1" xmlns="http://www.w3.org/2000/svg" xmlns:xlink="http://www.w3.org/1999/xlink" xml:space="preserve" xmlns:serif="http://www.serif.com/" style="fill-rule:evenodd;clip-rule:evenodd;stroke-linejoin:round;stroke-miterlimit:1.41421;"><rect id="Page-2" serif:id="Page 2" x="0" y="0" width="200" height="200" style="fill:none;"/><g id="Layer-1" serif:id="Layer 1"><path d="M591.667,446.122c-66.821,0 -121.179,63.421 -121.179,141.379c0,77.959 54.358,141.375 121.179,141.375c66.821,0 121.179,-63.416 121.179,-141.375c0,-77.958 -54.358,-141.379 -121.179,-141.379m0,323.15c-89.092,0 -161.571,-81.537 -161.571,-181.771c0,-100.225 72.479,-181.771 161.571,-181.771c89.091,0 161.571,81.546 161.571,181.771c0,100.234 -72.48,181.771 -161.571,181.771" style="fill:#EC2E24;fill-rule:nonzero;"/><path d="M601.766,688.485l-20.2,0c-33.408,0 -60.588,-27.071 -60.588,-60.355l40.396,0c0,11.005 9.054,19.963 20.192,19.963l20.2,0c5.937,0 11.554,-2.596 15.4,-7.133c3.908,-4.588 5.508,-10.484 4.5,-16.609c-1.521,-9.337 -11.204,-16.654 -22.071,-16.654l-15.858,0c-30.609,0 -57.254,-21.733 -61.95,-50.562c-2.879,-17.742 2.071,-35.7 13.608,-49.259c11.538,-13.579 28.363,-21.362 46.171,-21.362l20.2,0c33.412,0 60.587,27.4 60.587,61.066l-40.391,0c0,-11.204 -9.25,-20.67 -20.196,-20.67l-20.2,0c-5.933,0 -11.554,2.591 -15.4,7.129c-3.904,4.587 -5.504,10.483 -4.5,16.608c1.521,9.338 11.204,16.658 22.071,16.658l15.858,0c30.608,0 57.258,21.734 61.954,50.559c2.875,17.741 -2.071,35.7 -13.612,49.258c-11.534,13.571 -28.363,21.363 -46.171,21.363" style="fill:#EC2E24;fill-rule:nonzero;"/><rect x="571.471" y="466.317" width="40.396" height="40.396" style="fill:#EC2E24;"/><rect x="571.471" y="668.287" width="40.396" height="40.392" style="fill:#EC2E24;"/><path d="M288.717,850.057l-181.771,0l0,-525.112l727.083,0l0,40.391l-686.691,0l0,444.329l141.379,0l0,40.392Z" style="fill:#EC2E24;fill-rule:nonzero;"/><path d="M1076.39,850.057l-727.083,0l0,-40.392l686.692,0l0,-444.329l-161.575,0l0,-40.391l201.966,0l0,525.112Z" style="fill:#EC2E24;fill-rule:nonzero;"/><path d="M894.617,656.453l-77.35,-77.354c-7.892,-7.891 -7.892,-20.671 0,-28.558c7.883,-7.892 20.666,-7.892 28.554,0l48.796,48.796l48.796,-48.796c7.887,-7.892 20.67,-7.892 28.558,0c7.892,7.887 7.892,20.667 0,28.558l-77.354,77.354Z" style="fill:#EC2E24;fill-rule:nonzero;"/><path d="M914.815,627.893l-40.391,0l0,-302.95c0,-44.546 -36.238,-80.788 -80.788,-80.788c-44.554,0 -80.791,36.242 -80.791,80.788l0,20.196l-40.392,0l0,-20.196c0,-66.825 54.358,-121.183 121.183,-121.183c66.821,0 121.179,54.358 121.179,121.183l0,302.95Z" style="fill:#EC2E24;fill-rule:nonzero;"/><path d="M351.79,630.379c-5.166,0 -10.333,-1.975 -14.279,-5.916l-48.796,-48.796l-48.795,48.796c-7.888,7.891 -20.671,7.891 -28.559,0c-7.891,-7.888 -7.891,-20.671 0,-28.559l77.354,-77.358l77.355,77.358c7.887,7.888 7.887,20.671 0,28.559c-3.946,3.941 -9.113,5.916 -14.28,5.916" style="fill:#EC2E24;fill-rule:nonzero;"/><path d="M389.697,971.24c-66.821,0 -121.179,-54.358 -121.179,-121.183l0,-302.95l40.392,0l0,302.95c0,44.554 36.237,80.788 80.787,80.788c44.554,0 80.792,-36.234 80.792,-80.788l0,-20.196l40.391,0l0,20.196c0,66.825 -54.358,121.183 -121.183,121.183" style="fill:#EC2E24;fill-rule:nonzero;"/></g></svg>