<?xml version="1.0" encoding="UTF-8" standalone="no"?><!DOCTYPE svg PUBLIC "-//W3C//DTD SVG 1.1//EN" "http://www.w3.org/Graphics/SVG/1.1/DTD/svg11.dtd"><svg width="100%" height="100%" viewBox="0 0 1200 1200" version="1.1" xmlns="http://www.w3.org/2000/svg" xmlns:xlink="http://www.w3.org/1999/xlink" xml:space="preserve" xmlns:serif="http://www.serif.com/" style="fill-rule:evenodd;clip-rule:evenodd;stroke-linejoin:round;stroke-miterlimit:1.41421;"><rect id="Page-1" serif:id="Page 1" x="0" y="0" width="200" height="200" style="fill:none;"/><g id="Layer-1" serif:id="Layer 1"><path d="M551.154,297.774l218.85,0c10.429,0 18.887,-8.45 18.887,-18.891c0,-10.438 -8.458,-18.888 -18.887,-18.888l-218.85,0l24.421,-24.425c7.383,-7.375 7.383,-19.329 0,-26.708c-7.375,-7.38 -19.33,-7.38 -26.709,0l-56.654,56.65c-1.746,1.745 -3.129,3.837 -4.092,6.154c-1.908,4.617 -1.904,9.821 0,14.437c0.963,2.317 2.346,4.409 4.092,6.154l56.654,56.65c3.688,3.688 8.521,5.534 13.354,5.534c4.834,0 9.667,-1.846 13.355,-5.534c7.383,-7.379 7.383,-19.333 0,-26.712l-24.421,-24.421Zm383.304,81.075l-56.654,-56.654c-7.379,-7.379 -19.334,-7.379 -26.709,0c-7.383,7.379 -7.383,19.333 0,26.712l24.421,24.421l-218.846,0c-10.433,0 -18.891,8.45 -18.891,18.892c0,10.438 8.458,18.888 18.891,18.888l218.846,0l-24.421,24.425c-7.383,7.379 -7.383,19.329 0,26.708c3.688,3.687 8.521,5.533 13.355,5.533c4.833,0 9.662,-1.846 13.354,-5.533l56.654,-56.65c1.75,-1.746 3.133,-3.838 4.092,-6.154c1.904,-4.617 1.908,-9.821 0,-14.434c-0.959,-2.32 -2.342,-4.412 -4.092,-6.154m21.729,581.279l-46.95,-18.775c-6.983,-2.787 -15.029,-1.183 -20.367,4.188l-62.2,62.2l-62.2,-62.2c-5.341,-5.371 -13.354,-6.975 -20.366,-4.188l-46.963,18.775c-36.066,14.43 -59.362,48.846 -59.362,87.696l0,24.404c0,10.442 8.458,18.888 18.891,18.888c10.43,0 18.888,-8.446 18.888,-18.888l0,-24.404c0,-23.316 13.979,-43.958 35.612,-52.608l35.396,-14.167l66.746,66.759c7.383,7.375 19.333,7.375 26.713,0l66.75,-66.759l35.387,14.167c21.642,8.65 35.621,29.292 35.621,52.608l0,24.404c0,10.442 8.458,18.888 18.887,18.888c10.434,0 18.892,-8.446 18.892,-18.888l0,-24.404c0,-38.85 -23.296,-73.266 -59.375,-87.696m-129.517,-209.012c41.663,0 75.555,33.883 75.555,75.554c0,41.675 -33.892,75.554 -75.555,75.554c-41.662,0 -75.554,-33.879 -75.554,-75.554c0,-41.671 33.892,-75.554 75.554,-75.554m0,188.892c62.5,0 113.338,-50.838 113.338,-113.338c0,-62.496 -50.838,-113.337 -113.338,-113.337c-62.495,0 -113.337,50.841 -113.337,113.337c0,62.5 50.842,113.338 113.337,113.338m-361.595,20.12l-46.955,-18.775c-6.991,-2.787 -15.037,-1.183 -20.366,4.188l-62.2,62.2l-62.204,-62.2c-5.342,-5.371 -13.363,-6.975 -20.367,-4.188l-46.963,18.775c-36.062,14.43 -59.358,48.846 -59.358,87.696l0,24.404c0,10.442 8.458,18.888 18.888,18.888c10.429,0 18.887,-8.446 18.887,-18.888l0,-24.404c0,-23.316 13.983,-43.958 35.613,-52.608l35.4,-14.167l66.745,66.759c7.38,7.375 19.334,7.375 26.713,0l66.746,-66.759l35.391,14.167c21.638,8.65 35.621,29.292 35.621,52.608l0,24.404c0,10.442 8.459,18.888 18.888,18.888c10.433,0 18.887,-8.446 18.887,-18.888l0,-24.404c0,-38.85 -23.296,-73.266 -59.366,-87.696m-129.521,-209.012c41.658,0 75.554,33.883 75.554,75.554c0,41.675 -33.896,75.554 -75.554,75.554c-41.663,0 -75.559,-33.879 -75.559,-75.554c0,-41.671 33.896,-75.554 75.559,-75.554m0,188.892c62.496,0 113.333,-50.838 113.333,-113.338c0,-62.496 -50.837,-113.337 -113.333,-113.337c-62.5,0 -113.338,50.841 -113.338,113.337c0,62.5 50.838,113.338 113.338,113.338m680.008,-453.342c0,20.825 -16.946,37.775 -37.779,37.775l-56.667,0c-10.429,0 -18.891,8.45 -18.891,18.892l0,67.733l-81.092,-81.088c-3.538,-3.541 -8.346,-5.537 -13.354,-5.537l-358.892,0c-20.833,0 -37.779,-16.95 -37.779,-37.775l0,-302.229c0,-20.825 16.946,-37.775 37.779,-37.775l528.896,0c20.833,0 37.779,16.95 37.779,37.775l0,302.229Zm-302.229,113.333c0,20.825 -16.942,37.779 -37.775,37.779l-56.671,0c-5.004,0 -9.808,1.992 -13.354,5.538l-81.092,81.087l0,-67.733c0,-10.442 -8.454,-18.892 -18.887,-18.892l-283.338,0c-20.833,0 -37.779,-16.954 -37.779,-37.779l0,-264.446c0,-20.829 16.946,-37.779 37.779,-37.779l151.113,0l0,188.892c0,41.671 33.896,75.554 75.558,75.554l264.446,0l0,37.779Zm264.45,-491.116l-528.896,0c-41.662,0 -75.558,33.883 -75.558,75.554l0,75.558l-151.113,0c-41.662,0 -75.554,33.883 -75.554,75.558l0,264.446c0,41.671 33.892,75.559 75.554,75.559l264.45,0l0,94.445c0,7.638 4.6,14.534 11.659,17.446c2.341,0.984 4.795,1.442 7.229,1.442c4.916,0 9.741,-1.921 13.354,-5.533l107.804,-107.8l48.846,0c41.662,0 75.558,-33.888 75.558,-75.559l0,-37.779l48.842,0l107.8,107.804c3.621,3.613 8.442,5.534 13.358,5.534c2.434,0 4.888,-0.459 7.229,-1.442c7.055,-2.913 11.663,-9.813 11.663,-17.446l0,-94.45l37.775,0c41.662,0 75.558,-33.883 75.558,-75.554l0,-302.229c0,-41.671 -33.896,-75.554 -75.558,-75.554" style="fill:#EC2E24;fill-rule:nonzero;"/></g></svg>